<svg width="129" height="129" viewBox="0 0 129 129" fill="none" xmlns="http://www.w3.org/2000/svg">
<path fill-rule="evenodd" clip-rule="evenodd" d="M64.5 25.2818L98.4639 44.8909V84.109L64.5 103.718L30.5361 84.109V44.8909L64.5 25.2818ZM34.3469 47.0911V75.8978L59.2943 32.6877L34.3469 47.0911ZM64.5 31.2928L35.7417 81.1036H93.2583L64.5 31.2928ZM89.4475 84.9144H39.5525L64.5 99.3178L89.4475 84.9144ZM94.6531 75.8978L69.7057 32.6877L94.6531 47.0911V75.8978Z" fill="#E10098"/>
<path d="M64.5 35.5082C68.9328 35.5082 72.5262 31.9148 72.5262 27.482C72.5262 23.0493 68.9328 19.4558 64.5 19.4558C60.0673 19.4558 56.4738 23.0493 56.4738 27.482C56.4738 31.9148 60.0673 35.5082 64.5 35.5082Z" fill="#E10098"/>
<path d="M96.5586 54.0172C100.991 54.0172 104.585 50.4238 104.585 45.991C104.585 41.5583 100.991 37.9648 96.5586 37.9648C92.1258 37.9648 88.5324 41.5583 88.5324 45.991C88.5324 50.4238 92.1258 54.0172 96.5586 54.0172Z" fill="#E10098"/>
<path d="M96.5586 91.0352C100.991 91.0352 104.585 87.4418 104.585 83.009C104.585 78.5763 100.991 74.9828 96.5586 74.9828C92.1258 74.9828 88.5324 78.5763 88.5324 83.009C88.5324 87.4418 92.1258 91.0352 96.5586 91.0352Z" fill="#E10098"/>
<path d="M64.5 109.544C68.9328 109.544 72.5262 105.951 72.5262 101.518C72.5262 97.0852 68.9328 93.4918 64.5 93.4918C60.0673 93.4918 56.4738 97.0852 56.4738 101.518C56.4738 105.951 60.0673 109.544 64.5 109.544Z" fill="#E10098"/>
<path d="M32.437 91.0352C36.8697 91.0352 40.4632 87.4418 40.4632 83.009C40.4632 78.5763 36.8697 74.9828 32.437 74.9828C28.0042 74.9828 24.4108 78.5763 24.4108 83.009C24.4108 87.4418 28.0042 91.0352 32.437 91.0352Z" fill="#E10098"/>
<path d="M32.437 54.0172C36.8697 54.0172 40.4632 50.4238 40.4632 45.991C40.4632 41.5583 36.8697 37.9648 32.437 37.9648C28.0042 37.9648 24.4108 41.5583 24.4108 45.991C24.4108 50.4238 28.0042 54.0172 32.437 54.0172Z" fill="#E10098"/>
</svg>
