<svg width="129" height="129" viewBox="0 0 129 129" fill="none" xmlns="http://www.w3.org/2000/svg">
<g clip-path="url(#clip0_1_150)">
<path d="M114.803 80.4182C108.22 80.2957 101.768 82.2638 96.3732 86.04L98.0142 88.7246L96.3732 86.04L98.0142 88.7246L96.3732 86.04C92.3742 88.9491 87.5241 90.4487 82.5825 90.3038C77.662 90.437 72.8356 88.9379 68.855 86.04C63.4598 82.2638 57.0078 80.2957 50.4253 80.4182C43.8747 80.3136 37.4582 82.281 32.0903 86.04C28.1086 88.9358 23.283 90.4346 18.3628 90.3038C16.8304 90.3177 15.2996 90.2014 13.7869 89.9564L10 89.3247V99.1788L12.6824 99.5894C14.5308 99.8711 16.3984 100.008 18.2681 100C24.8506 100.122 31.3026 98.1543 36.6977 94.3781C40.6794 91.4824 45.5051 89.9835 50.4253 90.1143C55.3455 89.9835 60.1712 91.4824 64.1529 94.3781C69.548 98.1543 76 100.122 82.5825 100C89.165 100.122 95.617 98.1543 101.012 94.3781C104.994 91.4824 109.82 89.9835 114.74 90.1143H118.937V80.5445H114.803V80.4182ZM115.592 29H114.803C108.175 28.8986 101.687 30.912 96.2785 34.7482C92.2973 37.6176 87.4871 39.104 82.5825 38.9804C77.6643 39.0971 72.843 37.5996 68.855 34.7166C63.4809 30.9112 57.0394 28.9097 50.4569 29C43.8822 28.93 37.4538 30.9419 32.0903 34.7482C28.0838 37.6662 23.2208 39.1663 18.2681 39.012C16.7357 39.0279 15.2047 38.9116 13.6922 38.6646L10 38.0329V47.9502L12.6508 48.2976C14.4991 48.5807 16.3668 48.718 18.2365 48.7082C24.8266 48.8488 31.291 46.8913 36.6977 43.1179C40.6784 40.22 45.5048 38.7209 50.4253 38.8541C55.3458 38.7209 60.1722 40.22 64.1529 43.1179C69.5499 46.8869 76.0029 48.8443 82.5825 48.7082C89.1656 48.835 95.6189 46.8665 101.012 43.0863C105.001 40.2054 109.822 38.7081 114.74 38.8225H118.937V29H115.592ZM114.803 54.7722C108.22 54.6498 101.768 56.6179 96.3732 60.3941L98.0142 63.0787L96.3732 60.3941C92.3742 63.3032 87.5241 64.8028 82.5825 64.6579C77.662 64.7911 72.8356 63.292 68.855 60.3941C63.4598 56.6179 57.0078 54.6498 50.4253 54.7722C43.875 54.6698 37.4592 56.637 32.0903 60.3941C28.1086 63.2899 23.283 64.7887 18.3628 64.6579C16.8303 64.6738 15.2994 64.5575 13.7869 64.3105L10 63.742V73.5961L12.6824 74.0067C14.5309 74.2878 16.3984 74.4251 18.2681 74.4173C24.8506 74.5397 31.3026 72.5716 36.6977 68.7954C40.6794 65.8996 45.5051 64.4008 50.4253 64.5316C55.3455 64.4008 60.1712 65.8996 64.1529 68.7954C69.5556 72.5492 76.007 74.4951 82.5825 74.3541C89.1653 74.4787 95.618 72.5104 101.012 68.7322C104.993 65.8343 109.819 64.3352 114.74 64.4684H118.937V54.8986H114.803V54.7722Z" fill="#000099"/>
</g>
<defs>
<clipPath id="clip0_1_150">
<rect width="109" height="71" fill="white" transform="translate(10 29)"/>
</clipPath>
</defs>
</svg>
