<svg width="185" height="129" viewBox="0 0 185 129" fill="none" xmlns="http://www.w3.org/2000/svg">
<g clip-path="url(#clip0_1_145)">
<mask id="mask0_1_145" style="mask-type:luminance" maskUnits="userSpaceOnUse" x="14" y="23" width="157" height="83">
<path d="M14.2638 64.5C14.2638 87.2716 49.292 105.732 92.4999 105.732C135.708 105.732 170.736 87.2716 170.736 64.5C170.736 41.7287 135.708 23.268 92.4999 23.268C49.292 23.268 14.2638 41.7287 14.2638 64.5Z" fill="white"/>
</mask>
<g mask="url(#mask0_1_145)">
<path d="M14.2638 64.5C14.2638 87.2716 49.292 105.732 92.4999 105.732C135.708 105.732 170.736 87.2716 170.736 64.5C170.736 41.7287 135.708 23.268 92.4999 23.268C49.292 23.268 14.2638 41.7287 14.2638 64.5Z" fill="url(#paint0_radial_1_145)"/>
</g>
<mask id="mask1_1_145" style="mask-type:luminance" maskUnits="userSpaceOnUse" x="11" y="18" width="163" height="93">
<path d="M11.004 18.5729H173.996V110.427H11.004V18.5729Z" fill="white"/>
</mask>
<g mask="url(#mask1_1_145)">
<path d="M92.4999 102.671C134.02 102.671 167.68 85.581 167.68 64.4999C167.68 43.4191 134.02 26.3291 92.4999 26.3291C50.9797 26.3291 17.3199 43.4191 17.3199 64.4999C17.3199 85.581 50.9797 102.671 92.4999 102.671Z" fill="#777BB3"/>
</g>
<mask id="mask2_1_145" style="mask-type:luminance" maskUnits="userSpaceOnUse" x="11" y="18" width="163" height="93">
<path d="M11.004 18.5729H173.996V110.427H11.004V18.5729Z" fill="white"/>
</mask>
<g mask="url(#mask2_1_145)">
<path d="M56.7703 69.2326C60.1843 69.2326 62.7331 68.6018 64.3457 67.3584C65.9411 66.1277 67.043 63.9955 67.6206 61.0213C68.1591 58.2413 67.9539 56.3002 67.011 55.2526C66.0469 54.1827 63.9626 53.6401 60.8159 53.6401H55.3599L52.3353 69.2326H56.7703ZM38.9252 88.4397C38.672 88.4397 38.4314 88.3263 38.2704 88.1301C38.1091 87.9342 38.0438 87.6763 38.0922 87.4271L46.1082 46.1066C46.1857 45.7072 46.5352 45.4186 46.9415 45.4186H64.2181C69.6478 45.4186 73.6892 46.8956 76.2294 49.8091C78.7832 52.738 79.5719 56.832 78.5733 61.9772C78.1669 64.0734 77.468 66.0202 76.496 67.7632C75.5228 69.5081 74.2367 71.1227 72.6727 72.5629C70.8006 74.3183 68.6817 75.5912 66.3806 76.3402C64.1159 77.0793 61.2076 77.4541 57.7363 77.4541H50.7407L48.7429 87.7514C48.6654 88.1511 48.3162 88.4397 47.9099 88.4397H38.9252Z" fill="black"/>
<path d="M56.0598 54.4904H60.816C64.6137 54.4904 65.9329 55.3253 66.3812 55.8229C67.1248 56.649 67.2652 58.3908 66.7872 60.8598C66.2502 63.6239 65.2547 65.5838 63.8279 66.6843C62.3672 67.811 59.9925 68.3819 56.7703 68.3819H53.365L56.0598 54.4904ZM64.2181 44.5679H46.9413C46.1286 44.5679 45.4299 45.1451 45.2749 45.9443L37.2588 87.2647C37.1621 87.7634 37.2928 88.2791 37.6151 88.6712C37.9377 89.0633 38.4182 89.2901 38.9253 89.2901H47.9096C48.7226 89.2901 49.4212 88.7129 49.5763 87.9137L51.4405 78.3044H57.7364C61.2967 78.3044 64.294 77.9155 66.6441 77.1486C69.0609 76.3619 71.2845 75.028 73.2526 73.1841C74.8802 71.6839 76.221 69.9999 77.2368 68.1784C78.253 66.3563 78.983 64.3245 79.4067 62.1392C80.4579 56.7233 79.6039 52.3863 76.8687 49.2496C74.1601 46.143 69.9036 44.5679 64.2181 44.5679ZM51.3053 70.0829H56.7703C60.3926 70.0829 63.0908 69.3994 64.8636 68.0321C66.6367 66.6645 67.8325 64.382 68.4539 61.1836C69.0485 58.1127 68.7777 55.9456 67.6415 54.6832C66.504 53.4208 64.2292 52.7894 60.816 52.7894H54.6602L51.3053 70.0829ZM64.2181 46.2689C69.4155 46.2689 73.207 47.6354 75.5902 50.3686C77.9731 53.1018 78.6907 56.9169 77.7399 61.8149C77.3486 63.8326 76.6867 65.6773 75.7549 67.3486C74.8219 69.0209 73.6037 70.5501 72.0983 71.9367C70.3043 73.6187 68.3113 74.8174 66.1183 75.5312C63.9253 76.2471 61.132 76.6034 57.7364 76.6034H50.0407L47.9096 87.5891H38.9253L46.9413 46.2689H64.2181Z" fill="white"/>
<path d="M99.1732 77.4541C98.9197 77.4541 98.6794 77.3407 98.5184 77.1445C98.3568 76.9486 98.2915 76.6909 98.3399 76.4414L101.886 58.1588C102.223 56.4201 102.14 55.1721 101.652 54.6448C101.353 54.3224 100.455 53.7818 97.8014 53.7818H91.3773L86.9191 76.7657C86.8416 77.1655 86.4921 77.4541 86.0858 77.4541H77.1721C76.9186 77.4541 76.6784 77.3407 76.5171 77.1445C76.3558 76.9486 76.2904 76.6906 76.3388 76.4414L84.3548 35.121C84.4324 34.7215 84.7818 34.4329 85.1882 34.4329H94.1018C94.3553 34.4329 94.5956 34.5463 94.7569 34.7422C94.9182 34.9384 94.9835 35.1961 94.9351 35.4456L93.0007 45.4185H99.9115C105.176 45.4185 108.746 46.3484 110.825 48.2615C112.945 50.2131 113.606 53.3336 112.791 57.5373L109.062 76.7657C108.984 77.1655 108.635 77.4541 108.228 77.4541H99.1732Z" fill="black"/>
<path d="M94.1018 33.5823H85.1882C84.3752 33.5823 83.6766 34.1595 83.5215 34.9587L75.5055 76.2791C75.4087 76.7778 75.5394 77.2935 75.862 77.6856C76.1846 78.0776 76.6651 78.3044 77.1722 78.3044H86.0858C86.8985 78.3044 87.5974 77.7272 87.7525 76.9281L92.0772 54.6322H97.8014C100.451 54.6322 101.007 55.1992 101.029 55.2236C101.19 55.3968 101.401 56.1991 101.052 57.9965L97.5065 76.2791C97.4098 76.7778 97.5405 77.2935 97.8631 77.6856C98.1857 78.0776 98.6662 78.3044 99.1732 78.3044H108.228C109.041 78.3044 109.74 77.7272 109.895 76.9281L113.624 57.6996C114.5 53.186 113.751 49.8002 111.4 47.6354C109.156 45.5712 105.399 44.5679 99.9115 44.5679H94.0302L95.7685 35.6079C95.865 35.1092 95.7346 34.5932 95.412 34.2014C95.0894 33.8094 94.6089 33.5823 94.1018 33.5823ZM94.1018 35.2833L91.9708 46.2689H99.9115C104.908 46.2689 108.354 47.1427 110.251 48.8879C112.148 50.6342 112.716 53.4639 111.958 57.3753L108.228 76.6034H99.1732L102.719 58.3211C103.123 56.2413 102.974 54.8227 102.274 54.0663C101.573 53.3099 100.082 52.9312 97.8014 52.9312H90.6773L86.0858 76.6034H77.1722L85.1882 35.2833H94.1018Z" fill="white"/>
<path d="M126.895 69.2326C130.309 69.2326 132.858 68.6018 134.471 67.3584C136.066 66.128 137.168 63.9958 137.746 61.0213C138.284 58.2413 138.079 56.3002 137.136 55.2526C136.172 54.1827 134.087 53.6401 130.941 53.6401H125.485L122.46 69.2326H126.895ZM109.05 88.4397C108.797 88.4397 108.557 88.3263 108.395 88.1301C108.234 87.9342 108.169 87.6763 108.217 87.4271L116.233 46.1066C116.311 45.7072 116.66 45.4186 117.067 45.4186H134.343C139.773 45.4186 143.814 46.8956 146.354 49.8091C148.908 52.7377 149.697 56.8317 148.698 61.9772C148.291 64.0734 147.593 66.0202 146.621 67.7632C145.648 69.5081 144.362 71.1227 142.798 72.5629C140.925 74.3183 138.806 75.5912 136.505 76.3402C134.241 77.0793 131.332 77.4541 127.861 77.4541H120.865L118.868 87.7514C118.79 88.1511 118.441 88.4397 118.035 88.4397H109.05Z" fill="black"/>
<path d="M126.185 54.4904H130.941C134.739 54.4904 136.058 55.3253 136.506 55.8229C137.25 56.649 137.39 58.3908 136.912 60.8595C136.375 63.6239 135.379 65.5838 133.953 66.6843C132.492 67.811 130.117 68.3819 126.895 68.3819H123.49L126.185 54.4904ZM134.343 44.5679H117.066C116.254 44.5679 115.555 45.1451 115.4 45.9443L107.384 87.2647C107.287 87.7634 107.418 88.2791 107.74 88.6712C108.063 89.0633 108.543 89.2901 109.05 89.2901H118.035C118.847 89.2901 119.546 88.7129 119.701 87.9137L121.565 78.3044H127.861C131.422 78.3044 134.419 77.9155 136.769 77.1486C139.186 76.3619 141.41 75.0277 143.378 73.1836C145.006 71.6836 146.346 69.9999 147.362 68.1784C148.378 66.3563 149.108 64.3245 149.531 62.1392C150.583 56.723 149.729 52.386 146.994 49.2493C144.285 46.143 140.029 44.5679 134.343 44.5679ZM121.43 70.0829H126.895C130.517 70.0829 133.216 69.3994 134.988 68.0321C136.762 66.6645 137.957 64.382 138.579 61.1836C139.174 58.1127 138.903 55.9456 137.766 54.6832C136.629 53.4208 134.354 52.7894 130.941 52.7894H124.785L121.43 70.0829ZM134.343 46.2689C139.54 46.2689 143.332 47.6354 145.715 50.3686C148.098 53.1018 148.816 56.9169 147.865 61.8149C147.473 63.8326 146.812 65.6773 145.88 67.3486C144.947 69.0209 143.729 70.5501 142.223 71.9367C140.429 73.6187 138.436 74.8174 136.243 75.5312C134.05 76.2471 131.257 76.6034 127.861 76.6034H120.166L118.035 87.5891H109.05L117.066 46.2689H134.343Z" fill="white"/>
</g>
</g>
<defs>
<radialGradient id="paint0_radial_1_145" cx="0" cy="0" r="1" gradientUnits="userSpaceOnUse" gradientTransform="translate(61.2371 37.7639) scale(102.735 102.927)">
<stop stop-color="#AEB2D5"/>
<stop offset="0.3" stop-color="#AEB2D5"/>
<stop offset="0.75" stop-color="#484C89"/>
<stop offset="1" stop-color="#484C89"/>
</radialGradient>
<clipPath id="clip0_1_145">
<rect width="161" height="87" fill="white" transform="translate(12 21)"/>
</clipPath>
</defs>
</svg>
