<svg width="129" height="129" viewBox="0 0 129 129" fill="none" xmlns="http://www.w3.org/2000/svg">
<path d="M9 64.516C9 57.2483 18.2085 50.3608 32.3267 46.0897C29.0687 31.8673 30.5167 20.5521 36.8971 16.9295C38.3677 16.0797 40.0872 15.6772 41.9651 15.6772V20.6639C40.9244 20.6639 40.0872 20.8652 39.3859 21.2453C36.3088 22.9896 34.9739 29.6311 36.0147 38.1735C36.2635 40.2755 36.6708 42.4894 37.1686 44.7479C41.6031 43.6745 46.445 42.8471 51.5357 42.3105C54.5901 38.1735 57.7576 34.4166 60.9478 31.1294C53.5719 24.3537 46.6486 20.6416 41.9425 20.6416V15.6548C48.1645 15.6548 56.3096 20.0378 64.5452 27.6409C72.7809 20.0825 80.926 15.7443 87.148 15.7443V20.731C82.4645 20.731 75.5185 24.4208 68.1427 31.1518C71.3102 34.439 74.4778 38.1735 77.4869 42.3105C82.6003 42.8471 87.4421 43.6745 91.8767 44.7703C92.3971 42.5341 92.7817 40.3649 93.0532 38.2853C94.1166 29.7429 92.8043 23.1014 89.7499 21.3348C89.0711 20.9323 88.1887 20.7534 87.148 20.7534V15.7666C89.0485 15.7666 90.768 16.1691 92.2613 17.0189C98.619 20.6416 100.044 31.9344 96.7638 46.112C110.837 50.4055 120 57.2707 120 64.516C120 71.7837 110.791 78.6712 96.6733 82.9424C99.9313 97.1647 98.4833 108.48 92.1029 112.103C90.6323 112.952 88.9128 113.355 87.0122 113.355C80.7903 113.355 72.6451 108.972 64.4095 101.369C56.1739 108.927 48.0287 113.265 41.8068 113.265C39.9062 113.265 38.1867 112.863 36.6934 112.013C30.3357 108.39 28.9103 97.0976 32.191 82.92C18.1633 78.6489 9 71.7614 9 64.516V64.516ZM38.4582 49.6005C39.2954 52.4852 40.3361 55.4594 41.5126 58.4335C42.4403 56.6446 43.4132 54.8556 44.4766 53.0666C45.5173 51.2777 46.626 49.5334 47.7346 47.8339C44.5218 48.3035 41.4221 48.8849 38.4582 49.6005ZM48.8206 73.4161C50.5854 76.435 52.3954 79.2974 54.2733 81.9585C57.6445 82.2492 61.0609 82.4057 64.5 82.4057C67.9164 82.4057 71.3329 82.2492 74.6814 81.9808C76.5593 79.3197 78.392 76.4798 80.1567 73.4832C81.8763 70.5538 83.4374 67.5796 84.8628 64.5831C83.46 61.5866 81.8763 58.5901 80.1794 55.6606C78.4146 52.6417 76.6046 49.7794 74.7267 47.1183C71.3555 46.8276 67.939 46.6711 64.5 46.6711C61.0836 46.6711 57.6671 46.8276 54.3186 47.0959C52.4407 49.757 50.608 52.597 48.8432 55.5935C47.1237 58.523 45.5626 61.4971 44.1372 64.4937C45.5626 67.4902 47.1237 70.4867 48.8206 73.4161ZM41.5126 70.5091C40.2909 73.5056 39.2501 76.5021 38.3903 79.4092C41.3543 80.1248 44.4766 80.7286 47.712 81.1982C46.6033 79.4763 45.4947 77.7097 44.4539 75.8983C43.4132 74.1094 42.4403 72.298 41.5126 70.5091ZM64.4547 94.3694C66.5589 92.2227 68.6631 89.8299 70.7446 87.2136C68.7083 87.303 66.6268 87.3701 64.5226 87.3701C62.3958 87.3701 60.2917 87.3254 58.2328 87.2136C60.2691 89.8299 62.3732 92.2227 64.4547 94.3694ZM81.288 81.1982C84.5008 80.7286 87.6005 80.1471 90.5644 79.4316C89.7273 76.5468 88.6865 73.5727 87.51 70.5985C86.5823 72.3875 85.6095 74.1765 84.5461 75.9654C83.4827 77.7544 82.3967 79.4986 81.288 81.1982ZM64.5679 34.6626C62.4637 36.8094 60.3596 39.2021 58.278 41.8185C60.3143 41.729 62.3958 41.662 64.5 41.662C66.6268 41.662 68.7309 41.7067 70.7898 41.8185C68.7536 39.2021 66.6494 36.8094 64.5679 34.6626ZM81.3106 47.8339C82.4193 49.5558 83.5279 51.3224 84.5687 53.1337C85.6095 54.9227 86.5823 56.7117 87.51 58.5006C88.7318 55.5041 89.7725 52.5076 90.6323 49.6005C87.6684 48.9073 84.5461 48.3035 81.3106 47.8339V47.8339ZM101.787 75.8313C109.796 72.4546 114.977 68.0269 114.977 64.516C114.977 61.0052 109.796 56.5551 101.787 53.2008C99.8408 52.3734 97.714 51.6355 95.5194 50.9422C94.2297 55.3252 92.5328 59.8871 90.4287 64.5608C92.5102 69.2121 94.1845 73.7516 95.4515 78.1122C97.6914 77.419 99.8182 76.6587 101.787 75.8313ZM89.6141 107.787C92.6912 106.042 94.0261 99.4009 92.9853 90.8586C92.7364 88.7566 92.3292 86.5427 91.8314 84.2841C87.3969 85.3575 82.555 86.1849 77.4643 86.7216C74.4099 90.8586 71.2424 94.6154 68.0522 97.9027C75.428 104.678 82.3514 108.39 87.0575 108.39C88.0756 108.368 88.9354 108.167 89.6141 107.787V107.787ZM35.9468 90.7468C34.8834 99.2891 36.1957 105.931 39.2501 107.697C39.9289 108.1 40.8113 108.279 41.852 108.279C46.5355 108.279 53.4814 104.589 60.8573 97.8579C57.6898 94.5707 54.5222 90.8362 51.513 86.6992C46.3997 86.1626 41.5579 85.3352 37.1233 84.2394C36.6029 86.498 36.1957 88.6671 35.9468 90.7468V90.7468ZM27.236 75.8313C29.1818 76.6587 31.3086 77.3966 33.5033 78.0898C34.7929 73.7069 36.4898 69.145 38.594 64.4713C36.5124 59.82 34.8382 55.2805 33.5711 50.9199C31.3312 51.6131 29.2044 52.3734 27.2134 53.2008C19.204 56.5775 14.0228 61.0052 14.0228 64.516C14.0455 68.0269 19.2267 72.4769 27.236 75.8313V75.8313Z" fill="#61DAFB"/>
<path d="M64.5226 74.7355C58.8121 74.7355 54.1829 70.1601 54.1829 64.516C54.1829 58.872 58.8121 54.2965 64.5226 54.2965C70.2332 54.2965 74.8624 58.872 74.8624 64.516C74.8624 70.1601 70.2332 74.7355 64.5226 74.7355Z" fill="#61DAFB"/>
</svg>
