<svg width="129" height="129" viewBox="0 0 129 129" fill="none" xmlns="http://www.w3.org/2000/svg">
<g clip-path="url(#clip0_1_130)">
<path d="M97.3187 34.6209C97.2402 34.1534 96.8475 33.8418 96.4548 33.8418C96.0621 33.8418 89.1507 33.6859 89.1507 33.6859C89.1507 33.6859 83.3388 28.0763 82.789 27.5309C82.2393 26.9855 81.0612 27.1414 80.6685 27.2972C80.6685 27.2972 79.5689 27.6088 77.7626 28.1542C77.4484 27.1414 76.9772 25.9727 76.3489 24.7261C74.3068 20.8305 71.2438 18.7269 67.631 18.7269C67.3954 18.7269 67.1598 18.7269 66.8457 18.8048C66.7671 18.649 66.61 18.5711 66.5315 18.4153C64.9607 16.7012 62.9187 15.9221 60.484 16C55.7717 16.1558 51.0594 19.506 47.2895 25.5052C44.6192 29.7124 42.5772 35.0104 41.9489 39.1398C36.5297 40.7759 32.7598 41.9446 32.6813 42.0225C29.9324 42.8795 29.8539 42.9574 29.5397 45.5285C29.3041 47.4763 22.0785 102.404 22.0785 102.404L82.0822 112.688L108.079 106.3C108 106.222 97.3973 35.0883 97.3187 34.6209ZM74.7781 29.0892C73.3644 29.4787 71.7936 30.0241 70.1443 30.4916C70.1443 28.1542 69.8301 24.804 68.7306 21.9992C72.2648 22.7004 73.9927 26.6739 74.7781 29.0892ZM66.9242 31.5044C63.7826 32.4394 60.3269 33.5301 56.8712 34.543C57.8137 30.8811 59.6986 27.2193 61.8977 24.804C62.7616 23.947 63.9397 22.9341 65.2749 22.3108C66.6886 25.0377 67.0027 28.8554 66.9242 31.5044ZM60.5626 19.1165C61.6621 19.1165 62.6046 19.3502 63.39 19.8177C62.1333 20.5189 60.8767 21.4538 59.6986 22.7004C56.7142 25.8948 54.4365 30.8811 53.4941 35.6337C50.6667 36.4908 47.8393 37.3478 45.2475 38.1269C46.8968 30.6474 53.2584 19.3502 60.5626 19.1165Z" fill="#95BF47"/>
<path d="M96.4548 33.8418C96.0621 33.8418 89.1507 33.6859 89.1507 33.6859C89.1507 33.6859 83.3388 28.0763 82.789 27.5309C82.5534 27.2972 82.3178 27.2193 82.0037 27.1414V112.61L108 106.222C108 106.222 97.3973 35.0883 97.3187 34.543C97.2402 34.1534 96.8475 33.8418 96.4548 33.8418Z" fill="#5E8E3E"/>
<path d="M67.5525 47.0867L64.568 58.306C64.568 58.306 61.1909 56.7478 57.1854 57.0594C51.295 57.449 51.295 61.1108 51.295 62.0458C51.6091 67.0321 64.8822 68.1229 65.6676 79.8875C66.2173 89.159 60.7196 95.4699 52.7872 95.9373C43.2055 96.5606 37.9434 90.951 37.9434 90.951L39.9854 82.3807C39.9854 82.3807 45.2475 86.3542 49.4886 86.0426C52.2374 85.8867 53.2584 83.6273 53.1799 82.0691C52.7872 75.5245 41.9489 75.9141 41.242 65.1622C40.6922 56.1245 46.6612 46.9309 59.8557 46.1518C64.9607 45.7622 67.5525 47.0867 67.5525 47.0867Z" fill="white"/>
</g>
<defs>
<clipPath id="clip0_1_130">
<rect width="86" height="97" fill="white" transform="translate(22 16)"/>
</clipPath>
</defs>
</svg>
