<svg width="129" height="129" viewBox="0 0 129 129" fill="none" xmlns="http://www.w3.org/2000/svg">
<path fill-rule="evenodd" clip-rule="evenodd" d="M67.2555 49.9508C67.0564 49.9637 66.8569 49.97 66.6573 49.97C61.5457 49.97 57.3954 45.7736 57.3954 40.605C57.3954 35.4364 61.5457 31.24 66.6573 31.24C71.769 31.24 75.9193 35.4364 75.9193 40.605C75.9221 42.7538 75.1908 44.8376 73.8491 46.504L84.0869 65.5333C86.6099 64.606 89.2737 64.1317 91.9582 64.1317C104.675 64.1317 115 74.5712 115 87.43C115 100.289 104.675 110.728 91.9582 110.728C87.4578 110.727 83.0557 109.397 79.2915 106.903C78.8876 106.638 78.5461 106.286 78.291 105.873C78.0359 105.46 77.8734 104.995 77.8149 104.511C77.7564 104.028 77.8033 103.537 77.9523 103.074C78.1013 102.611 78.3488 102.186 78.6775 101.83C78.6843 101.823 78.6915 101.815 78.7051 101.814C79.2576 101.215 80.0003 100.831 80.804 100.728C81.6077 100.626 82.4215 100.811 83.1038 101.253C85.7411 102.98 88.8161 103.899 91.9582 103.899C100.948 103.899 108.246 96.5195 108.246 87.43C108.246 78.3405 100.948 70.9613 91.9582 70.9613C88.8453 70.9613 84.4271 72.3382 81.771 74.0426C81.6343 74.1465 81.4771 74.2194 81.31 74.2564C81.143 74.2933 80.97 74.2935 80.8029 74.2569C80.6358 74.2203 80.4784 74.1477 80.3415 74.0441C80.2046 73.9406 80.0913 73.8084 80.0094 73.6566L67.2555 49.9508ZM63.0032 90.4323C62.5359 93.1049 61.6102 95.6744 60.268 98.0248C53.9093 109.161 39.8059 112.983 28.7924 106.553C17.7789 100.124 14 85.8631 20.3582 74.7265C22.61 70.7865 25.9497 67.5964 29.968 65.547C30.3973 65.3262 30.8692 65.2032 31.3505 65.1866C31.8319 65.1699 32.311 65.26 32.7542 65.4506C33.1977 65.6409 33.5945 65.9272 33.9169 66.2892C34.2393 66.6512 34.4793 67.0802 34.6202 67.5461C34.6229 67.5561 34.6256 67.5657 34.6202 67.578C34.8571 68.3614 34.8148 69.204 34.5008 69.9591C34.1868 70.7142 33.6209 71.3341 32.9015 71.711C30.1035 73.1566 27.7787 75.3898 26.2076 78.1413C21.7131 86.0125 24.3842 96.0933 32.1692 100.638C39.9541 105.183 49.924 102.482 54.4185 94.61C55.975 91.8841 57.0046 87.3268 56.8732 84.1486C56.8522 83.9769 56.8682 83.8027 56.9199 83.6379C56.9717 83.473 57.058 83.3214 57.1729 83.1933C57.2879 83.0653 57.4289 82.9638 57.5862 82.8959C57.7435 82.8279 57.9134 82.7951 58.0844 82.7996L84.7651 83.4844C84.8532 83.3044 84.9471 83.1267 85.0479 82.9508C87.6037 78.4748 93.2729 76.9385 97.6997 79.5228C102.127 82.1075 103.646 87.8398 101.09 92.3158C98.5341 96.7918 92.8649 98.3277 88.4377 95.7434C86.596 94.6715 85.1768 92.9894 84.4203 90.9814L63.0032 90.4323ZM51.8202 58.4702C49.7644 56.7244 48.0261 54.6288 46.6837 52.2779C40.3251 41.1418 44.1039 26.8809 55.1175 20.452C66.131 14.023 80.2349 17.8439 86.593 28.9796C88.8417 32.9213 89.9044 37.4405 89.6508 41.9837C89.6252 42.4701 89.4946 42.9449 89.2681 43.3748C89.0417 43.8047 88.725 44.1793 88.3402 44.4723C87.9554 44.7653 87.5118 44.9695 87.0406 45.0707C86.5694 45.172 86.082 45.1677 85.6126 45.0582C85.6027 45.0559 85.5928 45.0531 85.5846 45.0422C84.7953 44.8579 84.0949 44.3997 83.6052 43.7472C83.1156 43.0948 82.8676 42.2894 82.9045 41.4712C83.0656 38.298 82.3151 35.1455 80.7436 32.394C76.2491 24.5228 66.2796 21.8216 58.4947 26.3661C50.7101 30.9111 48.0382 40.9915 52.5332 48.8631C54.0896 51.589 57.4781 54.7695 60.2657 56.2432C60.4231 56.3108 60.5643 56.412 60.6796 56.5397C60.7949 56.6675 60.8816 56.8189 60.9338 56.9836C60.986 57.1482 61.0025 57.3224 60.9822 57.4941C60.9619 57.6658 60.9052 57.8311 60.816 57.9787L46.8888 80.9997C46.9991 81.1664 47.1043 81.3377 47.2051 81.5136C49.7605 85.9901 48.2415 91.7224 43.8143 94.3067C39.3876 96.8909 33.7184 95.3551 31.1625 90.8786C28.6067 86.4026 30.1257 80.6703 34.5524 78.086C36.3914 77.0092 38.5419 76.6077 40.64 76.9494L51.8202 58.4702Z" fill="#353435"/>
</svg>
